<?xml version='1.0' encoding='UTF-8'?>
<!DOCTYPE svg PUBLIC "-//W3C//DTD SVG 1.0//EN" "http://www.w3.org/TR/2001/REC-SVG-20010904/DTD/svg10.dtd">
<svg viewBox="0 0 832 520" xmlns="http://www.w3.org/2000/svg" xmlns:inkspace="http://www.inkscape.org/namespaces/inkscape" xmlns:xlink="http://www.w3.org/1999/xlink">
  <defs id="defs_block">
    <filter height="1.504" id="filter_blur" inkspace:collect="always" width="1.1575" x="-0.07875" y="-0.252">
      <feGaussianBlur id="feGaussianBlur3780" inkspace:collect="always" stdDeviation="4.2" />
    </filter>
  </defs>
  <title>blockdiag</title>
  <desc>blockdiag {
  class group_cots [color = "#739FAD"];
  class group_own [color = "#C46375"];
  class node_cots [color = "#E8D7FF"];
  class node_own [color = "#E4C5AF"];

  group {
    orientation = portrait;
    label="Sensor Node";
    class="group_own";
  
    SNB [class="node_own", label="Sensor Node BME-280"];
    SNC [class="node_own", label="Sensor Node Core"];

    SNB &lt;-&gt; SNC [label="I2C", fontsize = 5];
  }

  group {
    label="Gateway";
    class="group_own";

    GW [class="node_own", label="Gateway"];
  }

  group {
    label="Raspberry Pi";
    class="group_cots";

    SNM [class="node_own", label="Sensor-Net-Middleware"];
  }

  group {
    label="Digital Ocean";
    class="group_cots";

    TRF [class="node_cots", label="Traefik"];
    AUTH [class="node_own", label="Auth0-Auth-Server"];
    BE [class="node_own", label="Sensor-Net-Back-End"];
    PG [class="node_cots", label="Postgres"];
    WA [class="node_own", label="Sensor-Net-Web-App"];
  }

  group {
    label="Auth0";
    class="group_cots";

    A0 [class="node_cots", label="Sensor Net Tenant"];
  }

  group {
    label="Devices";
    class="group_cots";

    CD [class="node_cots", label="Consumer Devices"];
  }

  SNC -&gt; GW [label="LoRa @ 434 MHz", fontsize = 5];
  GW -&gt; SNM [label="serial over USB", fontsize = 5, folded];
  SNM -&gt; TRF;
  TRF &lt;-&gt; AUTH;
  TRF &lt;-&gt; BE &lt;-&gt; PG;
  TRF &lt;-&gt; WA;
  SNM &lt;-&gt; A0;
  TRF &lt;-&gt; CD [folded];
  A0 &lt;-&gt; CD;
}
</desc>
  <rect fill="rgb(196,99,117)" height="140" style="filter:url(#filter_blur)" width="144" x="56" y="30" />
  <rect fill="rgb(196,99,117)" height="60" style="filter:url(#filter_blur)" width="144" x="248" y="110" />
  <rect fill="rgb(115,159,173)" height="60" style="filter:url(#filter_blur)" width="144" x="56" y="190" />
  <rect fill="rgb(115,159,173)" height="220" style="filter:url(#filter_blur)" width="528" x="248" y="190" />
  <rect fill="rgb(115,159,173)" height="60" style="filter:url(#filter_blur)" width="144" x="248" y="430" />
  <rect fill="rgb(115,159,173)" height="60" style="filter:url(#filter_blur)" width="144" x="440" y="430" />
  <rect fill="rgb(0,0,0)" height="40" stroke="rgb(0,0,0)" style="filter:url(#filter_blur);opacity:0.7;fill-opacity:1" width="128" x="67" y="46" />
  <rect fill="rgb(0,0,0)" height="40" stroke="rgb(0,0,0)" style="filter:url(#filter_blur);opacity:0.7;fill-opacity:1" width="128" x="67" y="126" />
  <rect fill="rgb(0,0,0)" height="40" stroke="rgb(0,0,0)" style="filter:url(#filter_blur);opacity:0.7;fill-opacity:1" width="128" x="259" y="126" />
  <rect fill="rgb(0,0,0)" height="40" stroke="rgb(0,0,0)" style="filter:url(#filter_blur);opacity:0.7;fill-opacity:1" width="128" x="67" y="206" />
  <rect fill="rgb(0,0,0)" height="40" stroke="rgb(0,0,0)" style="filter:url(#filter_blur);opacity:0.7;fill-opacity:1" width="128" x="259" y="206" />
  <rect fill="rgb(0,0,0)" height="40" stroke="rgb(0,0,0)" style="filter:url(#filter_blur);opacity:0.7;fill-opacity:1" width="128" x="451" y="206" />
  <rect fill="rgb(0,0,0)" height="40" stroke="rgb(0,0,0)" style="filter:url(#filter_blur);opacity:0.7;fill-opacity:1" width="128" x="451" y="286" />
  <rect fill="rgb(0,0,0)" height="40" stroke="rgb(0,0,0)" style="filter:url(#filter_blur);opacity:0.7;fill-opacity:1" width="128" x="451" y="366" />
  <rect fill="rgb(0,0,0)" height="40" stroke="rgb(0,0,0)" style="filter:url(#filter_blur);opacity:0.7;fill-opacity:1" width="128" x="643" y="286" />
  <rect fill="rgb(0,0,0)" height="40" stroke="rgb(0,0,0)" style="filter:url(#filter_blur);opacity:0.7;fill-opacity:1" width="128" x="259" y="446" />
  <rect fill="rgb(0,0,0)" height="40" stroke="rgb(0,0,0)" style="filter:url(#filter_blur);opacity:0.7;fill-opacity:1" width="128" x="451" y="446" />
  <rect fill="rgb(228,197,175)" height="40" stroke="rgb(0,0,0)" width="128" x="64" y="40" />
  <text fill="rgb(0,0,0)" font-family="sans-serif" font-size="11" font-style="normal" font-weight="normal" text-anchor="middle" textLength="118" x="128.0" y="65">Sensor Node BME-280</text>
  <rect fill="rgb(228,197,175)" height="40" stroke="rgb(0,0,0)" width="128" x="64" y="120" />
  <text fill="rgb(0,0,0)" font-family="sans-serif" font-size="11" font-style="normal" font-weight="normal" text-anchor="middle" textLength="95" x="128.5" y="145">Sensor Node Core</text>
  <rect fill="rgb(228,197,175)" height="40" stroke="rgb(0,0,0)" width="128" x="256" y="120" />
  <text fill="rgb(0,0,0)" font-family="sans-serif" font-size="11" font-style="normal" font-weight="normal" text-anchor="middle" textLength="45" x="320.5" y="147">Gateway</text>
  <rect fill="rgb(228,197,175)" height="40" stroke="rgb(0,0,0)" width="128" x="64" y="200" />
  <text fill="rgb(0,0,0)" font-family="sans-serif" font-size="11" font-style="normal" font-weight="normal" text-anchor="middle" textLength="122" x="128.0" y="225">Sensor-Net-Middleware</text>
  <rect fill="rgb(232,215,255)" height="40" stroke="rgb(0,0,0)" width="128" x="256" y="200" />
  <text fill="rgb(0,0,0)" font-family="sans-serif" font-size="11" font-style="normal" font-weight="normal" text-anchor="middle" textLength="37" x="320.5" y="225">Traefik</text>
  <rect fill="rgb(228,197,175)" height="40" stroke="rgb(0,0,0)" width="128" x="448" y="200" />
  <text fill="rgb(0,0,0)" font-family="sans-serif" font-size="11" font-style="normal" font-weight="normal" text-anchor="middle" textLength="97" x="512.5" y="225">Auth0-Auth-Server</text>
  <rect fill="rgb(228,197,175)" height="40" stroke="rgb(0,0,0)" width="128" x="448" y="280" />
  <text fill="rgb(0,0,0)" font-family="sans-serif" font-size="11" font-style="normal" font-weight="normal" text-anchor="middle" textLength="111" x="512.5" y="305">Sensor-Net-Back-End</text>
  <rect fill="rgb(228,197,175)" height="40" stroke="rgb(0,0,0)" width="128" x="448" y="360" />
  <text fill="rgb(0,0,0)" font-family="sans-serif" font-size="11" font-style="normal" font-weight="normal" text-anchor="middle" textLength="110" x="512.0" y="386">Sensor-Net-Web-App</text>
  <rect fill="rgb(232,215,255)" height="40" stroke="rgb(0,0,0)" width="128" x="640" y="280" />
  <text fill="rgb(0,0,0)" font-family="sans-serif" font-size="11" font-style="normal" font-weight="normal" text-anchor="middle" textLength="44" x="704.0" y="306">Postgres</text>
  <rect fill="rgb(232,215,255)" height="40" stroke="rgb(0,0,0)" width="128" x="256" y="440" />
  <text fill="rgb(0,0,0)" font-family="sans-serif" font-size="11" font-style="normal" font-weight="normal" text-anchor="middle" textLength="96" x="320.0" y="465">Sensor Net Tenant</text>
  <rect fill="rgb(232,215,255)" height="40" stroke="rgb(0,0,0)" width="128" x="448" y="440" />
  <text fill="rgb(0,0,0)" font-family="sans-serif" font-size="11" font-style="normal" font-weight="normal" text-anchor="middle" textLength="97" x="512.5" y="465">Consumer Devices</text>
  <path d="M 128 88 L 128 112" fill="none" stroke="rgb(0,0,0)" />
  <polygon fill="rgb(0,0,0)" points="128,81 124,88 132,88 128,81" stroke="rgb(0,0,0)" />
  <polygon fill="rgb(0,0,0)" points="128,119 124,112 132,112 128,119" stroke="rgb(0,0,0)" />
  <path d="M 192 140 L 248 140" fill="none" stroke="rgb(0,0,0)" />
  <polygon fill="rgb(0,0,0)" points="255,140 248,136 248,144 255,140" stroke="rgb(0,0,0)" />
  <path d="M 320 160 L 320 180" fill="none" stroke="rgb(0,0,0)" />
  <path d="M 128 180 L 320 180" fill="none" stroke="rgb(0,0,0)" />
  <path d="M 128 180 L 128 192" fill="none" stroke="rgb(0,0,0)" />
  <polygon fill="rgb(0,0,0)" points="128,199 124,192 132,192 128,199" stroke="rgb(0,0,0)" />
  <path d="M 192 220 L 248 220" fill="none" stroke="rgb(0,0,0)" />
  <polygon fill="rgb(0,0,0)" points="255,220 248,216 248,224 255,220" stroke="rgb(0,0,0)" />
  <path d="M 200 220 L 224 220" fill="none" stroke="rgb(0,0,0)" />
  <path d="M 224 220 L 224 460" fill="none" stroke="rgb(0,0,0)" />
  <path d="M 224 460 L 248 460" fill="none" stroke="rgb(0,0,0)" />
  <polygon fill="rgb(0,0,0)" points="193,220 200,216 200,224 193,220" stroke="rgb(0,0,0)" />
  <polygon fill="rgb(0,0,0)" points="255,460 248,456 248,464 255,460" stroke="rgb(0,0,0)" />
  <path d="M 392 220 L 440 220" fill="none" stroke="rgb(0,0,0)" />
  <polygon fill="rgb(0,0,0)" points="385,220 392,216 392,224 385,220" stroke="rgb(0,0,0)" />
  <polygon fill="rgb(0,0,0)" points="447,220 440,216 440,224 447,220" stroke="rgb(0,0,0)" />
  <path d="M 392 220 L 416 220" fill="none" stroke="rgb(0,0,0)" />
  <path d="M 416 220 L 416 300" fill="none" stroke="rgb(0,0,0)" />
  <path d="M 416 300 L 440 300" fill="none" stroke="rgb(0,0,0)" />
  <polygon fill="rgb(0,0,0)" points="385,220 392,216 392,224 385,220" stroke="rgb(0,0,0)" />
  <polygon fill="rgb(0,0,0)" points="447,300 440,296 440,304 447,300" stroke="rgb(0,0,0)" />
  <path d="M 392 220 L 416 220" fill="none" stroke="rgb(0,0,0)" />
  <path d="M 416 220 L 416 380" fill="none" stroke="rgb(0,0,0)" />
  <path d="M 416 380 L 440 380" fill="none" stroke="rgb(0,0,0)" />
  <polygon fill="rgb(0,0,0)" points="385,220 392,216 392,224 385,220" stroke="rgb(0,0,0)" />
  <polygon fill="rgb(0,0,0)" points="447,380 440,376 440,384 447,380" stroke="rgb(0,0,0)" />
  <path d="M 392 220 L 416 220" fill="none" stroke="rgb(0,0,0)" />
  <path d="M 416 220 L 416 460" fill="none" stroke="rgb(0,0,0)" />
  <path d="M 416 460 L 440 460" fill="none" stroke="rgb(0,0,0)" />
  <polygon fill="rgb(0,0,0)" points="385,220 392,216 392,224 385,220" stroke="rgb(0,0,0)" />
  <polygon fill="rgb(0,0,0)" points="447,460 440,456 440,464 447,460" stroke="rgb(0,0,0)" />
  <path d="M 584 300 L 632 300" fill="none" stroke="rgb(0,0,0)" />
  <polygon fill="rgb(0,0,0)" points="577,300 584,296 584,304 577,300" stroke="rgb(0,0,0)" />
  <polygon fill="rgb(0,0,0)" points="639,300 632,296 632,304 639,300" stroke="rgb(0,0,0)" />
  <path d="M 392 460 L 440 460" fill="none" stroke="rgb(0,0,0)" />
  <polygon fill="rgb(0,0,0)" points="385,460 392,456 392,464 385,460" stroke="rgb(0,0,0)" />
  <polygon fill="rgb(0,0,0)" points="447,460 440,456 440,464 447,460" stroke="rgb(0,0,0)" />
  <rect fill="white" height="9" stroke="rgb(0,0,0)" width="25" x="164" y="106" />
  <text fill="rgb(0,0,0)" font-family="sans-serif" font-size="5" font-style="normal" font-weight="normal" text-anchor="middle" textLength="9" x="176.5" y="113">I2C</text>
  <rect fill="white" height="9" stroke="rgb(0,0,0)" width="57" x="196" y="121" />
  <text fill="rgb(0,0,0)" font-family="sans-serif" font-size="5" font-style="normal" font-weight="normal" text-anchor="middle" textLength="41" x="224.5" y="128">LoRa @ 434 MHz</text>
  <rect fill="white" height="9" stroke="rgb(0,0,0)" width="52" x="150" y="166" />
  <text fill="rgb(0,0,0)" font-family="sans-serif" font-size="5" font-style="normal" font-weight="normal" text-anchor="middle" textLength="36" x="176.0" y="173">serial over USB</text>
  <text fill="rgb(0,0,0)" font-family="sans-serif" font-size="11" font-style="normal" font-weight="normal" text-anchor="middle" textLength="67" x="128.5" y="35">Sensor Node</text>
  <text fill="rgb(0,0,0)" font-family="sans-serif" font-size="11" font-style="normal" font-weight="normal" text-anchor="middle" textLength="45" x="320.5" y="117">Gateway</text>
  <text fill="rgb(0,0,0)" font-family="sans-serif" font-size="11" font-style="normal" font-weight="normal" text-anchor="middle" textLength="65" x="128.5" y="197">Raspberry Pi</text>
  <text fill="rgb(0,0,0)" font-family="sans-serif" font-size="11" font-style="normal" font-weight="normal" text-anchor="middle" textLength="70" x="512.0" y="196">Digital Ocean</text>
  <text fill="rgb(0,0,0)" font-family="sans-serif" font-size="11" font-style="normal" font-weight="normal" text-anchor="middle" textLength="33" x="320.5" y="435">Auth0</text>
  <text fill="rgb(0,0,0)" font-family="sans-serif" font-size="11" font-style="normal" font-weight="normal" text-anchor="middle" textLength="41" x="512.5" y="435">Devices</text>
</svg>
